# xmcd CD database file
#
# Track frame offsets:
#	150
#	15648
#	29712
#	44305
#	56181
#	80354
#	97485
#	118682
#	139038
#	155185
#	170407
#	183509
#	202103
#	218858
#	232525
#	248528
#	265105
#	284547
#
# Disc length: 4056 seconds
#
# Revision: 0
# Processed by: cddbd v1.5.1PL2 Copyright (c) Steve Scherf et al.
# Submitted via: CDex 1.51
#
DISCID=0a0fd612
DTITLE=Lark and Spur - Under a Softening Sky
DYEAR=1996
DGENRE=Jazz
TTITLE0=Laura
TTITLE1=Once Upon a Summertime
TTITLE2=Mood Indigo
TTITLE3=All I've Got to Do
TTITLE4=Sally Gardens
TTITLE5=Loss of Love
TTITLE6=All of Me - On the Sunny Side of the Street
TTITLE7=Since I Fell For You
TTITLE8=Early Autumn
TTITLE9=Peel Me a Grape
TTITLE10=Chattanooga Choo-Choo
TTITLE11=September Song
TTITLE12=Skylark
TTITLE13=Trying to Get to You
TTITLE14=Tell Me On A Sunday
TTITLE15=My One and Only Love
TTITLE16=Will Ye Go Lassie Go?
TTITLE17=The Touch of Your Lips
EXTD=YEAR: 1996
EXTT0=
EXTT1=
EXTT2=
EXTT3=
EXTT4=
EXTT5=
EXTT6=
EXTT7=
EXTT8=
EXTT9=
EXTT10=
EXTT11=
EXTT12=
EXTT13=
EXTT14=
EXTT15=
EXTT16=
EXTT17=
PLAYORDER=
